PathFileType	3	(X/Y/Z)	results
DataRate	CameraRate	NumFrames	NumMarkers	Units	OrigDataRate	OrigDataStartFrame	OrigNumFrames
30.0	30.0	4	85	mm	30.0	1	262
Frame#	Time	head			nose			neck			shoulder_r			elbow_r			wrist_r			shoulder_l			elbow_l			wrist_l			hip_r			knee_r			ankle_r			hip_l			knee_l			ankle_l			heel_r			heel_l			mtoe_r			ltoe_r			mtoe_l			ltoe_l			asis_l			asis_r			psi_r			psi_l			mhnd_r			lhnd_r			mhnd_l			lhnd_l			l_lat_knee			r_med_wrist			l_lat_ankle			r_med_ankle			r_lat_knee			xiphoid			l_med_ankle			r_med_knee			l_med_elbow			navel			r_lat_elbow			r_lat_wrist			l_med_wrist			l_lat_elbow			l_med_knee			r_med_elbow			r_lat_ankle			l_lat_wrist			chin			T10			r_eye			l_eye			l_ear			r_ear			spinal_cord_8			spinal_cord_12			spinal_cord_27			spinal_cord_33			up_arm_r_0			up_arm_r_5			up_arm_l_0			up_arm_l_5			front_torso_11			front_torso_7			front_torso_4			front_torso_1			front_torso_10			thigh_r_2			thigh_r_3			thigh_l_1			thigh_l_5			shank_l_0			shank_l_4			shank_r_1			shank_r_2			foot_r_1			foot_r_3			foot_r_5			foot_r_6			foot_r_7			foot_l_1			foot_l_7			foot_l_0			foot_l_4			foot_l_5			foot_l_6			
		X1	Y1	Z1	X2	Y2	Z2	X3	Y3	Z3	X4	Y4	Z4	X5	Y5	Z5	X6	Y6	Z6	X7	Y7	Z7	X8	Y8	Z8	X9	Y9	Z9	X10	Y10	Z10	X11	Y11	Z11	X12	Y12	Z12	X13	Y13	Z13	X14	Y14	Z14	X15	Y15	Z15	X16	Y16	Z16	X17	Y17	Z17	X18	Y18	Z18	X19	Y19	Z19	X20	Y20	Z20	X21	Y21	Z21	X22	Y22	Z22	X23	Y23	Z23	X24	Y24	Z24	X25	Y25	Z25	X26	Y26	Z26	X27	Y27	Z27	X28	Y28	Z28	X29	Y29	Z29	X30	Y30	Z30	X31	Y31	Z31	X32	Y32	Z32	X33	Y33	Z33	X34	Y34	Z34	X35	Y35	Z35	X36	Y36	Z36	X37	Y37	Z37	X38	Y38	Z38	X39	Y39	Z39	X40	Y40	Z40	X41	Y41	Z41	X42	Y42	Z42	X43	Y43	Z43	X44	Y44	Z44	X45	Y45	Z45	X46	Y46	Z46	X47	Y47	Z47	X48	Y48	Z48	X49	Y49	Z49	X50	Y50	Z50	X51	Y51	Z51	X52	Y52	Z52	X53	Y53	Z53	X54	Y54	Z54	X55	Y55	Z55	X56	Y56	Z56	X57	Y57	Z57	X58	Y58	Z58	X59	Y59	Z59	X60	Y60	Z60	X61	Y61	Z61	X62	Y62	Z62	X63	Y63	Z63	X64	Y64	Z64	X65	Y65	Z65	X66	Y66	Z66	X67	Y67	Z67	X68	Y68	Z68	X69	Y69	Z69	X70	Y70	Z70	X71	Y71	Z71	X72	Y72	Z72	X73	Y73	Z73	X74	Y74	Z74	X75	Y75	Z75	X76	Y76	Z76	X77	Y77	Z77	X78	Y78	Z78	X79	Y79	Z79	X80	Y80	Z80	X81	Y81	Z81	X82	Y82	Z82	X83	Y83	Z83	X84	Y84	Z84	X85	Y85	Z85	
1	0.03333333333333333	89.23762178177626	1686.779847345759	-111.99676012526294	60.09788724425886	1528.2821108189535	-238.33381896672853	75.35055938782668	1368.5763224371672	-105.1783892821416	235.00946142195681	1323.643317406642	-127.78398038907154	288.000480851289	1162.3802297473837	-322.72778177842997	135.87256703741502	1328.2876060374479	-365.46254794800967	-61.086514618404685	1325.349472340117	-128.7312734498264	-129.80548650976047	1163.0320171314731	-307.2023281259969	33.62862056575289	1315.6580290367854	-371.81808851404185	177.82991431442022	864.6238905280928	-128.48963808158325	198.96889536840115	480.67974890225025	-79.89581122143036	263.8694267201842	108.70912756629775	-60.865453411197045	-21.606713202850848	849.597580589801	-125.5157902502116	-39.626922015316154	477.5176606296253	-87.77749219252962	-98.74115769919656	107.84461032639014	-59.73127968403002	266.27355751643404	54.18529416006881	-45.434934581248335	-110.27598953624195	47.18967996072587	-34.55627926257627	281.0783773302909	43.74442747231233	-274.06153695044316	343.4902012628595	41.06346274046431	-208.09059153822093	-98.64264751400285	48.19938767331748	-264.971915852697	-179.43736264209107	31.40327644800496	-208.85848351648855	-71.57115038247618	914.0639520822644	-161.41247623681974	220.74540057499232	932.703056646281	-162.68121618673985	124.0941094463207	932.3839747462149	-21.135619887381413	24.513710620391155	925.0712545667757	-25.576738801162126	82.8952336629699	1361.9058195803548	-403.4744624114938	88.23718592722355	1400.9579353272845	-367.2054941818725	86.93477408352304	1346.3637178578344	-416.87617848593277	90.90838763650177	1382.601697592172	-377.8023183769959	-87.45576096455574	474.73275510063155	-78.37595110139002	139.2227439995115	1312.9056589354523	-389.610039289909	-150.24404209338047	102.26071116295677	-47.58063133143432	233.69243946901958	93.2857327781943	-76.44930907975403	241.6892173672287	474.0597356304966	-71.94810691521425	77.74928055495964	1197.1163345507305	-202.50822759980068	-73.9929857397219	91.40702431385311	-76.125327706861	160.89876850316998	470.6922168530476	-95.91884952743048	-113.41495438569277	1143.4595291541011	-284.0076937333974	75.40486573972143	974.8921794490753	-218.77196810691038	312.907869061106	1191.7290498964312	-331.68451183313107	139.3193418159241	1329.5311915964435	-333.88650292908807	21.604995326230835	1302.0490468336336	-398.6309997817424	-151.98022721509295	1193.7512071729307	-311.8817739428518	-5.118410935889662	471.1369461437431	-120.57220170798463	263.1663142889487	1142.4153729428754	-305.06640960344885	312.19867842979164	99.20450035606326	-58.89575978926424	24.773175220936555	1325.6297159354178	-343.64470841290387	62.84330951601319	1454.204141935792	-225.28812616395402	75.59746051068717	1207.4714401627814	-4.007815100412579	91.86253426688363	1558.3764463787197	-242.2283783001526	26.788097642836224	1558.3617831173208	-228.65314149306647	-2.6998818053966396	1546.3826227669722	-122.93961021626099	159.1541754010538	1543.248807329579	-154.4064676535832	74.68820124563338	1428.3837998440692	-55.25683812785188	73.39830768701634	1309.082824939141	-3.5370659048945265	86.82395457456919	1053.715812078797	-20.860105767423352	75.638594415724	1197.7636418584766	-17.272445384511606	239.8814501592548	1272.0941583448953	-253.10545410382025	298.2358685489088	1213.8364280791295	-224.3880973219746	-95.57971492977806	1309.8276058234364	-172.43689908270616	-104.46274488140023	1177.94898831476	-232.278931796996	119.40510090971462	1003.021430079972	-178.0563812906163	79.07406854147273	1109.0310736645388	-234.03969348138688	18.327610036079722	1242.9556996047872	-208.780064976858	11.141548367895014	1036.9245043807157	-183.3397894956999	151.40567316929094	1285.114580863631	-215.16873778488832	172.98879716584773	653.9731236340177	-109.35489148454812	266.78685985356464	626.7738774546976	-79.58146617889182	8.040573657020357	580.0151380725308	-113.21489163796072	-124.26498823058519	753.5350056546238	-106.44707510309561	-149.52042439623688	207.6393063637939	-66.26369115645056	-17.547360170611377	326.62170141289147	-88.23962580894101	282.4328564341632	331.2824192688816	-64.8751112160164	195.07068925370677	279.5138295330806	-78.62396212228641	303.40739428151477	36.987568548419354	-253.82992561459733	326.6003540632861	39.43612092655186	-234.99691183607172	262.09307497684347	55.32523055947004	-191.33080000787453	298.38261209631867	62.97492342089445	-175.00516580141567	329.2024118182774	49.96679087986406	-160.22953084445504	-148.51426782063697	33.439460130092705	-239.14449302112882	-168.86913089040019	62.77497708208872	-131.93063157348794	-163.71684468768137	32.822367646748056	-231.23466249233203	-129.84182262224218	34.16131548851293	-248.20373783638377	-137.82705892301126	49.531649020181064	-188.62193319653665	-107.35374618725434	62.6274548645936	-158.00276561507832	
2	0.06666666666666667	85.72586735120387	1689.7576089085287	-121.98913428146516	63.19045761273251	1527.2922424705318	-244.58142223562683	75.7905587534773	1367.4220669855533	-107.45303572655517	229.54503311859372	1326.313662363593	-134.49331086110462	286.07739244860517	1163.0242639268747	-326.73685948744514	138.3907428217729	1333.0539993492823	-368.8434207644038	-64.77063167150148	1325.290308286444	-125.20770233265804	-136.36801852025155	1172.135660558377	-310.51457969062807	25.76535166236271	1326.25911112613	-374.8522483967044	174.88975759277437	864.9103301493732	-128.91759899229675	201.0934956695381	481.269158987399	-80.27523110693566	266.6090871942993	109.36121231509105	-62.1489216554129	-24.37757386489295	849.0072512055496	-121.90155661819801	-40.5300532642538	476.3596771004088	-88.49530445147914	-94.46093674063233	106.10190557586475	-57.83768793950528	269.42196936142625	55.28295366132475	-46.298378646538396	-104.89243195495577	45.126293327569634	-32.46368295574245	279.1408764316866	39.564868936630916	-274.89584660220305	343.08753203945207	39.472441868421306	-210.3558925358679	-99.39567744516692	47.89227945298642	-263.0929411865986	-178.8249744530283	31.40871334312413	-204.9733106078433	-75.34708626482585	913.5887520825316	-156.1399656217076	216.80002621700274	933.4845915473139	-163.3657613703124	123.14645264875875	931.4466656482341	-19.83323983680596	23.52528974130985	923.7508720256474	-22.252724378272443	86.62869045514648	1368.413644222199	-406.94949933093494	92.51625458079096	1406.8581015374211	-370.1201286446073	77.73889462786197	1358.3558979118452	-420.4939388824425	83.22153356065665	1393.1003140400423	-380.2631851988397	-88.21857733888447	473.3284246239341	-78.63905034752703	141.62760899843317	1317.9076970057993	-393.15476673922063	-145.7569915084696	99.90827565937965	-45.120809396043356	235.83499116233625	93.88025094924262	-76.4556708476538	244.21187179737342	474.9684628585052	-74.55677633648101	79.32884356088836	1194.6967411084477	-202.4836680377508	-69.66877400567485	89.90078617806402	-74.39979701449215	162.29585607604665	470.99684929901065	-94.22975185700305	-119.57975138553279	1151.435609170768	-288.61972064325136	76.21136131953655	972.29273364176	-215.91197448292107	311.69127560545417	1191.9388407983797	-335.09332278345556	141.53471336544914	1333.809369953561	-337.22035568645856	12.779828038852692	1313.7122008786673	-401.73449887208557	-158.63661054231687	1203.0203731478523	-313.2585390425658	-6.239976926177872	470.5899070345543	-121.59137523033745	260.41024774489966	1143.5473383723006	-309.73384631699787	314.97618872768277	99.84552859083551	-62.05168637522996	17.906463486237143	1335.2219893541762	-346.0512503465161	66.86601501415471	1453.6697713572999	-229.36646436583774	73.16227094617132	1207.6522210745807	-4.2202038664582995	94.51558507408237	1557.8538746880056	-248.39618977656238	29.07637535686852	1557.00295073359	-236.73620129770146	-3.3281878147659176	1547.420031702842	-131.63385185604258	159.42122271168392	1546.431843268219	-158.2491220458435	74.40344610243544	1427.8785830425977	-58.334608161397895	71.46004107833181	1309.270330094602	-5.1111173237817775	83.96574838827947	1053.6384943989399	-18.84497421785572	73.42680667919706	1197.7720071327933	-17.35431403043612	237.50076109088624	1273.8917922904568	-259.2938628580096	294.05145110841363	1214.9534564917685	-228.43645056093132	-99.98095896011338	1311.9553819539008	-169.06318673059957	-109.78408828937631	1183.2695042229932	-235.36394377362996	119.50774761439091	1000.7433752750865	-174.66857052150598	80.86063099603746	1106.2021073397336	-232.83749828426144	20.277181942120443	1240.729911439921	-210.56863861245083	11.545361842249184	1035.0845311776477	-182.61450834795852	153.6665243518691	1282.1740503964315	-214.7667303432901	172.45241186152822	654.302465851382	-108.87496001270512	267.8648007511132	627.8123516601157	-83.99359534675678	6.520682796214223	579.4296945011872	-113.0581582324913	-126.45589779647817	752.2803755243575	-103.0791514455869	-146.61931279569365	205.18216255819766	-64.3794129983585	-16.46452347783056	325.76702689720736	-88.37239169081033	285.05161806231587	331.9064604447598	-67.89644702443665	197.20130688139233	280.1126472850862	-77.94083763503465	302.0372441841014	33.655185014440406	-255.0365863577695	325.6131728746756	36.927083658504095	-236.81403259027041	261.87265512081416	52.834694765827294	-192.0426523615623	298.3964902158075	61.453893450986904	-176.755614668063	329.7580595801088	49.299278493375226	-162.3991437323371	-148.701854759867	33.396981584726205	-236.05820498421076	-165.9064559902827	62.054601327968165	-128.1117014785496	-163.69346110664134	32.85995778221938	-227.74990130027047	-130.2713981061583	34.015182155807906	-245.60740898548434	-136.51631704064516	48.97733034547787	-185.71469068979508	-105.11219633248545	61.53522413757927	-155.8192587771958	
3	0.1	82.93701989425223	1692.2330604699075	-132.61045869712495	65.96710261927585	1525.8287436628311	-250.73469120426128	75.87837232392874	1366.856247968442	-110.36794306359333	227.55781786613898	1329.9819131588233	-140.05573861681907	285.4434916800608	1163.9983166636432	-329.56988516879665	139.59938273271356	1335.2903973721423	-372.96272882175714	-67.73708988550013	1325.1884406382792	-126.22064708840297	-139.39758035950922	1175.798148186999	-314.55143412755126	20.503899281406085	1331.6785413332623	-380.2280905393111	173.04514325355532	865.5911827695593	-126.86465195249991	203.05792497014747	481.6756341007777	-82.12740638790684	267.2115654887658	109.59722778467047	-62.67627308782359	-26.077513612250552	848.7513476180575	-118.13598472770379	-41.65212881465945	475.6575367650564	-89.03344827900666	-92.00453413954848	105.04015231061203	-56.6816842590311	269.94254015024	55.7786776788249	-46.413918870174165	-101.61629822914107	43.915949638420514	-31.128771718049258	277.86143337216276	36.696106613118424	-274.8246548469583	342.32420671270734	37.69687411512462	-210.8079515991476	-100.9411739971519	47.344068180478054	-261.8136475812814	-179.2466103728302	31.234542762297146	-202.0863133172459	-77.64270211533753	913.1580576627259	-151.8069980294336	214.33489614966052	934.4217462377287	-161.55017734974754	121.9517024151583	931.6879121548009	-17.20821744737	22.3498093966044	923.534597975629	-18.770785518389786	88.3387875024022	1370.9979252332778	-411.42064874916883	94.45582862597408	1409.5339127130737	-374.7245763217826	71.32693867673676	1364.6710214164966	-426.5220612625947	77.47049617640684	1398.9112432561574	-385.9559271933185	-89.22158256372225	472.52432061061705	-78.79199382032326	142.78463504162505	1320.0134085816858	-397.1990053851628	-143.13070364423024	98.433101429587	-43.497339125100545	236.16880323188087	94.16675615917686	-76.44710024970536	246.3484267966971	475.6862310886026	-77.71109968650441	80.24836502669578	1192.6561996060796	-202.63183118090987	-67.21356425167224	89.00444749958486	-73.40576997581039	163.9002402755612	471.34976434412675	-94.93099827226023	-122.22155776296242	1154.7498224573567	-293.29878428611744	76.57580616804887	970.0804420828736	-212.63808528290295	311.34122235431045	1192.6497784133715	-337.95770552788537	142.62440747174017	1336.1448743324568	-341.33058575642184	7.021252606218248	1319.414392100258	-406.9958519955554	-161.99089914755106	1206.5149276032716	-316.3697805573486	-7.561096652278523	470.376014599998	-122.37917587013793	259.44460058382765	1144.8901553969376	-312.6526975199714	315.5333402982769	99.86827035179196	-63.21262065100655	13.207028851301123	1340.2150726920734	-351.15101860163355	70.37067502720704	1452.763074797558	-233.20501632628304	71.16556586246581	1208.7287495614855	-4.708997224238621	96.91257952476707	1556.7561101071767	-254.69763071505207	31.22003386949504	1555.21552382288	-244.64349671219068	-3.680937943834936	1548.2735216037397	-140.1345368985676	159.6852822781027	1549.0737722977317	-162.66357237702175	73.96335968847616	1428.0772703679804	-62.223852203995456	69.8222582683531	1310.3253955483449	-7.208685813785004	81.66267254383673	1054.4718022749512	-16.76851638346085	71.59263887631238	1198.6436463172463	-17.682113953957987	236.73303477194264	1275.9829782888917	-264.097885792327	292.5227631949612	1217.0809995580146	-231.8186205292757	-103.1858157964959	1312.5536577495259	-170.0913777921965	-112.28721985099452	1185.3979276384018	-239.37724648591364	119.34786789886772	999.035108411832	-171.19882275399945	81.93248720002943	1103.6934904914306	-231.57663570135685	21.480850913210585	1238.7440700684697	-212.3171675747021	11.633547586891064	1033.5894593822418	-181.2959355602053	155.0581185469258	1279.6950496372576	-215.1611331862755	172.4950646092543	654.8235376529451	-108.42508251276003	268.775882848675	628.7447375766619	-86.6481994287988	5.154050764040914	579.12256160696	-112.67025703698748	-127.91701520657651	751.7009235972806	-99.68912199673942	-145.1008774743187	203.62932119487854	-63.09587059228888	-16.242066884763243	325.2864264511678	-88.62227634547655	286.5356496727402	332.0199879865344	-70.04132382871467	198.3265023883777	280.55603665391175	-78.51328272507568	300.92979403649804	31.130356725062864	-255.0653177575235	324.64379992304976	34.72236490409748	-237.0838105286008	261.22897318663746	51.15508218833006	-192.0404121787538	297.8547824430695	60.07801926037504	-177.1775077592679	329.35798833371564	48.204629892132075	-162.89599526900025	-149.76926407593615	33.10853898146521	-233.79120887775105	-164.50423123790776	61.55671442560932	-125.4247604327715	-164.58661095564767	32.65011924724101	-225.17142649539022	-131.53938040375073	33.62808720300277	-243.72361102488264	-136.42141738025987	48.45119673622107	-183.66993724449713	-104.30989748314366	60.700486575514304	-154.40457321947056	
4	0.13333333333333333	84.02675341976318	1692.3532010114432	-141.75201714945453	67.38964339653857	1524.3966255824976	-257.7067686260783	75.59945411527788	1366.7698292319983	-115.20299950215515	228.1735048562041	1333.1502151292577	-143.62530185249256	287.1067356019235	1165.8159191726181	-331.6227087289133	139.5342106491306	1334.7057730365464	-378.45204834908225	-68.8269500063548	1324.0828607440428	-133.59287002907786	-137.9153225199183	1172.8330522768129	-321.3998532392159	18.432480613445932	1331.823865050349	-388.1672799171798	172.83972399222625	866.2424064883119	-122.02041010115636	203.62595003028028	481.4946182970681	-84.51970822560975	266.8749161407391	109.40412596602323	-62.505839233934545	-26.273449204926663	849.2904200266595	-113.29249104143632	-43.32873934087198	475.7221320353328	-90.65468973005306	-90.80590412602822	104.87625299765568	-56.61794720384645	269.48158661798954	55.60587075751123	-45.930058496593524	-99.88037569358744	43.730743244713615	-30.84439130027103	277.5253976750433	35.937216954495526	-274.28670687594257	341.9496683210851	37.04932152715271	-210.23309220658314	-103.16081443325793	46.93202463762025	-261.5101890697292	-180.67914658336974	32.22098007954065	-200.41104028558178	-77.87428745866274	913.4160948069747	-147.44188966547043	214.0905488693823	934.865604589606	-157.16015914628989	121.62347388004935	933.0568871505264	-12.857358390442553	22.0296353666439	924.8061686953477	-14.422036983446546	88.05347621656631	1369.198055760592	-417.71658946738785	93.55981967558542	1408.3904950776275	-381.62399830468183	68.36648454825232	1365.7370346398488	-434.7624403974568	73.96187933814737	1400.2118626005583	-394.3158692457245	-90.89927349359755	472.6767436176495	-80.61925288197313	143.00679435375022	1319.0757639085891	-402.42230695234787	-141.9270650136687	97.92142113728514	-43.594026539528016	235.7952716972301	93.95471771723801	-76.17184486368927	246.97601076537333	475.54018095962175	-81.14381075238869	81.20482225592366	1190.5318870209176	-203.4421422303572	-65.8222350012381	88.95807821984114	-73.16663442175367	164.1361157381916	471.52679224229433	-96.45647918877854	-120.23039919343113	1152.1951722612403	-300.1620499408539	77.887292149593	967.7819312775135	-208.445326921936	312.7417107526006	1194.6039003729782	-340.3436279625907	142.40025836932554	1336.1067895967747	-346.8245871244313	5.098449972805091	1319.206284170585	-414.8450693828161	-161.1585522267091	1203.0618399758152	-323.204747239095	-9.004222082595888	470.97777908913895	-123.78413086132468	261.3056075108493	1146.6532444643378	-314.46610386587605	315.17293668637615	99.55438007973811	-62.9726577524605	11.078832817657702	1340.2884421044441	-359.08347690633946	70.92933872261848	1451.5595097099733	-239.0654696804509	69.8595344709601	1211.0684394205791	-6.049622704466441	98.6459501071259	1555.0110336862244	-261.66034079937765	32.80369808975618	1554.1497589713763	-252.54850089387025	-3.6687381849785234	1549.0076030618031	-148.4729920820564	160.00858616528865	1548.1548153466467	-168.61563334420566	73.071957352414	1429.0623633186383	-68.48270092739774	68.43455159336679	1312.5805753524132	-10.864918798346585	80.65999283299112	1056.5922429166098	-14.492480634663567	70.44470594451101	1200.6928339817039	-18.785314386207492	237.56763081850784	1278.0173089923742	-267.1511570673908	293.9227938876406	1219.9135780412844	-234.4106636858897	-104.14072942251524	1310.6135965763153	-177.32394394649208	-110.77380215589558	1183.1547867037414	-246.33264621280065	120.15501551715302	997.7245381231586	-167.1910628698864	83.31367630186227	1100.9390978989172	-230.34356340458086	22.501060193429193	1236.309880015621	-214.83345194366836	12.524800355010065	1031.8970388549205	-179.2867908829983	156.0575307939935	1277.3650229828663	-217.0921447496839	172.55702005532245	655.1965811655004	-107.09056656753532	269.30948345500303	628.7169991912109	-88.06098497245105	4.021560568551491	579.501717622953	-112.18097111499421	-128.53972098151596	752.2963652707369	-97.04076402150864	-144.67282835894994	202.9982667608426	-63.73219852591852	-16.705266750654943	325.5659056489923	-89.38602455601581	286.7394738540129	331.7233649468104	-71.399870020972	198.4058936982229	280.416728955401	-79.52229324610553	300.5771994204645	30.403335282983825	-254.49911410406511	324.2830212732075	34.02215334319009	-236.5121920132071	260.8536697844255	50.619509357068	-191.54968179283742	297.4774419676846	59.55106946274026	-176.686937005602	328.9624270989914	47.68896762065525	-162.35594936840778	-151.73020254836692	33.560561991480185	-232.62579418187096	-164.08870873357196	62.35769617754516	-124.05463097780647	-166.40099158546184	33.36389201114965	-223.7492050016976	-133.66968707163963	33.75871041695896	-242.874195002713	-137.25184244671937	48.71912870626445	-182.7629926917248	-104.43118974079749	60.444150631698854	-154.0752782482114	
